<?xml version="1.0" standalone="no"?><!DOCTYPE svg PUBLIC "-//W3C//DTD SVG 1.1//EN" "http://www.w3.org/Graphics/SVG/1.1/DTD/svg11.dtd"><svg t="1713149259926" class="icon" viewBox="0 0 1024 1024" version="1.1" xmlns="http://www.w3.org/2000/svg" p-id="4489" xmlns:xlink="http://www.w3.org/1999/xlink" width="200" height="200"><path d="M761.9 441.9c23.7-17.6 46.7-36.3 68.9-55.9 1.3-1.1 3.7-2.7 5.6-3.6-14-35.1-33.6-67.3-57.6-95.7-15.6 31.6-36 61.8-59.2 87.1 15.9 21.4 30.1 44.2 42.3 68.1zM848.1 416.4c-22.8 19.8-47.5 39.4-71.7 57.1 9.6 22.6 17.5 46.1 23.7 70.2 18.7-4.3 37.9-7.3 57.6-8.6 0.6 0 1.9 0 2.8 0.1 0.5-7.7 0.8-15.5 0.8-23.3 0-33-4.6-65.1-13.2-95.5zM856.5 570c-16 1.3-33.6 3.8-48.8 7.3 5.3 28.8 8.2 58.4 8.2 88.6v18.6c19.8-34.9 33.8-73.5 40.6-114.5zM698 346.5c21.1-23.8 39.1-50.8 52.8-80.5 0.8-1.7 2.2-4.1 3.5-5.6-62.8-60.5-148.2-97.8-242.4-97.8-34.2 0-67.2 4.9-98.4 14 113.1 24.6 213.9 86.3 284.5 169.9z" fill="#FF7517" p-id="4490"></path><path d="M208.6 352.2c63.5 68.4 149.5 106.1 242.3 106.1 83.8 0 162.7-32.6 222.7-87.5-75.4-90.2-190.2-150.4-319.7-170.3-64 32.5-116.6 84.2-150.3 147.5 2 1.5 4.1 3.3 5 4.2zM781.6 665.8c0-27-2.6-53.5-7.2-79.3-117.4 40-204.7 144.8-220.6 272.4 90.6-10.8 170.6-56.3 226.3-122.9 1-14.4 1.5-45.2 1.5-70.2z" fill="#FF7517" p-id="4491"></path><path d="M196.9 646.9c192.3-10.6 378.5-76.1 536.4-185.6-11-22.1-24-43.1-38.4-63.2-66 59.5-152.5 94.4-244.1 94.4-98.5 0-193.8-41.2-262.5-112.3-16.5 40.6-25.7 85.1-25.7 131.7 0 48.3 9.8 94.2 27.5 136 2.2-0.5 5.1-0.9 6.8-1z" fill="#FF7517" p-id="4492"></path><path d="M518.9 858.2C535 713.8 634.1 596.5 767 552.9c-5.2-20.4-11.5-40.4-19.4-59.7-159.7 109.3-348 175.2-541.7 187.3C265.4 788.3 380.2 861.3 512 861.3c2.3 0 4.5 0 6.7-0.1 0-1 0.1-2.3 0.2-3z" fill="#FF7517" p-id="4493"></path></svg>